<svg xmlns="http://www.w3.org/2000/svg" xmlns:xlink="http://www.w3.org/1999/xlink" width="500" zoomAndPan="magnify" viewBox="0 0 375 374.999991" height="500" preserveAspectRatio="xMidYMid meet" version="1.0"><defs><g/></defs><rect x="-37.5" width="450" fill="#ffffff" y="-37.499999" height="449.999989" fill-opacity="1"/><rect x="-37.5" width="450" fill="#ffffff" y="-37.499999" height="449.999989" fill-opacity="1"/><rect x="-37.5" width="450" fill="#faf8eb" y="-37.499999" height="449.999989" fill-opacity="1"/><g fill="#000000" fill-opacity="1"><g transform="translate(99.785726, 254.133485)"><g><path d="M 1.050781 0 L 4.398438 0 L 4.398438 -0.351562 C 3.101562 -0.75 2.5 -1.625 2.5 -4.675781 L 2.5 -15.046875 L 8.773438 -4.75 L 9.347656 -4.75 L 15.347656 -15.273438 L 15.347656 -3.175781 C 15.347656 -1.375 15.171875 -0.625 14.347656 -0.351562 L 14.347656 0 L 19 0 L 19 -0.351562 C 18.171875 -0.625 18 -1.375 18 -3.175781 L 18 -12.824219 C 18 -15.875 18.546875 -16.75 19.699219 -17.148438 L 19.699219 -17.5 L 16.148438 -17.5 L 10.273438 -7.25 L 4.097656 -17.5 L 0.351562 -17.5 L 0.351562 -17.148438 C 1.5 -16.75 2.050781 -15.875 2.050781 -12.824219 L 2.050781 -3.175781 C 2.050781 -1.375 1.875 -0.625 1.050781 -0.351562 Z M 1.050781 0 "/></g></g></g><g fill="#000000" fill-opacity="1"><g transform="translate(120.657426, 254.133485)"><g><path d="M 1.175781 0 L 5.824219 0 L 5.824219 -0.351562 C 5 -0.625 4.824219 -1.375 4.824219 -3.175781 L 4.824219 -14.324219 C 4.824219 -16.125 5 -16.875 5.824219 -17.148438 L 5.824219 -17.5 L 1.175781 -17.5 L 1.175781 -17.148438 C 2 -16.875 2.175781 -16.125 2.175781 -14.324219 L 2.175781 -3.175781 C 2.175781 -1.375 2 -0.625 1.175781 -0.351562 Z M 1.175781 0 "/></g></g></g><g fill="#000000" fill-opacity="1"><g transform="translate(127.656323, 254.133485)"><g><path d="M 13.898438 0.175781 C 14.324219 0.175781 15.125 0.148438 15.699219 0 L 15.699219 -0.351562 C 15.574219 -0.324219 15.449219 -0.324219 15.324219 -0.324219 C 14.398438 -0.324219 14.125 -0.925781 12.796875 -4.25 C 11.472656 -7.574219 10.925781 -8.75 8.097656 -9.074219 C 11.425781 -9.472656 13 -11.199219 13 -13.5 C 13 -15.523438 11.875 -17.5 6.425781 -17.5 L 1.175781 -17.5 L 1.175781 -17.148438 C 2 -16.875 2.175781 -16.125 2.175781 -14.324219 L 2.175781 -3.175781 C 2.175781 -1.375 2 -0.625 1.175781 -0.351562 L 1.175781 0 L 5.824219 0 L 5.824219 -0.351562 C 5 -0.625 4.824219 -1.375 4.824219 -3.175781 L 4.824219 -8.972656 L 6.300781 -8.972656 C 8.5 -8.972656 8.625 -7.75 10.125 -4.097656 C 11.324219 -1.175781 11.824219 0.175781 13.898438 0.175781 Z M 4.824219 -9.375 L 4.824219 -17.023438 C 5.199219 -17.074219 5.574219 -17.097656 5.925781 -17.097656 C 9.050781 -17.097656 10.347656 -14.921875 10.347656 -12.898438 C 10.347656 -10.972656 9.273438 -9.375 6.425781 -9.375 Z M 4.824219 -9.375 "/></g></g></g><g fill="#000000" fill-opacity="1"><g transform="translate(143.103877, 254.133485)"><g><path d="M 1.175781 0 L 5.824219 0 L 5.824219 -0.351562 C 5 -0.625 4.824219 -1.375 4.824219 -3.175781 L 4.824219 -14.324219 C 4.824219 -16.125 5 -16.875 5.824219 -17.148438 L 5.824219 -17.5 L 1.175781 -17.5 L 1.175781 -17.148438 C 2 -16.875 2.175781 -16.125 2.175781 -14.324219 L 2.175781 -3.175781 C 2.175781 -1.375 2 -0.625 1.175781 -0.351562 Z M 1.175781 0 "/></g></g></g><g fill="#000000" fill-opacity="1"><g transform="translate(150.102774, 254.133485)"><g><path d="M -0.523438 0 L 2.375 0 L 2.375 -0.351562 C 1.523438 -0.550781 1.375 -1.273438 2.050781 -2.949219 L 3.5 -6.523438 L 10.175781 -6.523438 L 11.675781 -2.925781 C 12.375 -1.273438 12.722656 -0.625 11.898438 -0.351562 L 11.898438 0 L 16.449219 0 L 16.449219 -0.351562 C 15.875 -0.625 15.222656 -1.273438 14.523438 -2.925781 L 8.324219 -17.699219 L 5.875 -16.597656 L 6.199219 -15.898438 C 6.425781 -15.449219 6.449219 -15.046875 6.25 -14.546875 L 1.574219 -2.949219 C 0.898438 -1.273438 0.226562 -0.625 -0.523438 -0.351562 Z M 3.648438 -6.925781 L 6.773438 -14.648438 L 10 -6.925781 Z M 3.648438 -6.925781 "/></g></g></g><g fill="#000000" fill-opacity="1"><g transform="translate(166.175234, 254.133485)"><g><path d="M 1.050781 0 L 4.398438 0 L 4.398438 -0.351562 C 3.101562 -0.75 2.5 -1.625 2.5 -4.675781 L 2.5 -15.046875 L 8.773438 -4.75 L 9.347656 -4.75 L 15.347656 -15.273438 L 15.347656 -3.175781 C 15.347656 -1.375 15.171875 -0.625 14.347656 -0.351562 L 14.347656 0 L 19 0 L 19 -0.351562 C 18.171875 -0.625 18 -1.375 18 -3.175781 L 18 -12.824219 C 18 -15.875 18.546875 -16.75 19.699219 -17.148438 L 19.699219 -17.5 L 16.148438 -17.5 L 10.273438 -7.25 L 4.097656 -17.5 L 0.351562 -17.5 L 0.351562 -17.148438 C 1.5 -16.75 2.050781 -15.875 2.050781 -12.824219 L 2.050781 -3.175781 C 2.050781 -1.375 1.875 -0.625 1.050781 -0.351562 Z M 1.050781 0 "/></g></g></g><g fill="#000000" fill-opacity="1"><g transform="translate(187.046933, 254.133485)"><g/></g></g><g fill="#000000" fill-opacity="1"><g transform="translate(192.046147, 254.133485)"><g><path d="M 11 0.25 C 14.046875 0.25 15.949219 -0.351562 17.273438 -0.949219 L 17.671875 -4.523438 L 17.347656 -4.574219 C 16.449219 -1.976562 14.523438 -0.273438 11.722656 -0.273438 C 6.847656 -0.273438 4 -4.75 4 -9.574219 C 4 -14.546875 6.824219 -17.199219 10.824219 -17.199219 C 13.398438 -17.199219 15.972656 -15.648438 17 -13.074219 L 17.296875 -13.148438 L 17.199219 -16.449219 C 15.898438 -17.324219 13.324219 -17.671875 11.472656 -17.671875 C 5.347656 -17.671875 1.351562 -13.5 1.351562 -8.449219 C 1.351562 -2.851562 5.023438 0.25 11 0.25 Z M 11 0.25 "/></g></g></g><g fill="#000000" fill-opacity="1"><g transform="translate(210.818175, 254.133485)"><g><path d="M 10.300781 0.25 C 14.5 0.25 19.222656 -2.574219 19.222656 -8.675781 C 19.222656 -14.796875 14.523438 -17.699219 10.300781 -17.699219 C 5 -17.699219 1.351562 -13.773438 1.351562 -8.824219 C 1.351562 -2.550781 6.050781 0.25 10.300781 0.25 Z M 3.949219 -10.347656 C 3.675781 -14.398438 5.597656 -17.046875 9 -17.046875 C 13.324219 -17.046875 16.324219 -12.023438 16.699219 -6.699219 C 16.921875 -3.398438 15.546875 -0.523438 11.722656 -0.523438 C 7.472656 -0.523438 4.300781 -5.347656 3.949219 -10.347656 Z M 3.949219 -10.347656 "/></g></g></g><g fill="#000000" fill-opacity="1"><g transform="translate(231.314931, 254.133485)"><g><path d="M 7.148438 0.25 C 10.023438 0.25 13.171875 -1.648438 13.171875 -5.074219 C 13.171875 -8.074219 10.148438 -9.199219 7.597656 -10.175781 C 5.597656 -10.972656 3.074219 -11.875 3.074219 -14.097656 C 3.074219 -16.074219 4.648438 -17.25 6.648438 -17.25 C 9.074219 -17.25 11.199219 -15.847656 12.222656 -13.273438 L 12.5 -13.375 L 12.398438 -16.625 C 11.097656 -17.273438 9.449219 -17.671875 7.597656 -17.671875 C 3.675781 -17.671875 1.175781 -15.75 1.175781 -12.648438 C 1.175781 -9.75 3.324219 -8.898438 5.898438 -7.824219 C 7.898438 -7.023438 11.125 -5.875 11.125 -3.425781 C 11.125 -1.375 9.523438 -0.273438 7.800781 -0.273438 C 4.472656 -0.273438 2.25 -2.476562 1.199219 -5.324219 L 0.875 -5.273438 L 0.976562 -1.523438 C 2.25 -0.574219 4.574219 0.25 7.148438 0.25 Z M 7.148438 0.25 "/></g></g></g><g fill="#000000" fill-opacity="1"><g transform="translate(245.137745, 254.133485)"><g><path d="M 4.699219 0 L 9.375 0 L 9.375 -0.351562 C 8.550781 -0.625 8.375 -1.375 8.375 -3.175781 L 8.375 -17.046875 L 9.097656 -17.046875 C 11.324219 -17.046875 12.449219 -16.421875 13.375 -14.421875 L 13.671875 -14.472656 L 13.523438 -17.5 L 0.5 -17.5 L 0.351562 -14.472656 L 0.648438 -14.421875 C 1.574219 -16.421875 2.699219 -17.046875 4.925781 -17.046875 L 5.699219 -17.046875 L 5.699219 -3.175781 C 5.699219 -1.375 5.523438 -0.625 4.699219 -0.351562 Z M 4.699219 0 "/></g></g></g><g fill="#000000" fill-opacity="1"><g transform="translate(259.135529, 254.133485)"><g><path d="M -0.523438 0 L 2.375 0 L 2.375 -0.351562 C 1.523438 -0.550781 1.375 -1.273438 2.050781 -2.949219 L 3.5 -6.523438 L 10.175781 -6.523438 L 11.675781 -2.925781 C 12.375 -1.273438 12.722656 -0.625 11.898438 -0.351562 L 11.898438 0 L 16.449219 0 L 16.449219 -0.351562 C 15.875 -0.625 15.222656 -1.273438 14.523438 -2.925781 L 8.324219 -17.699219 L 5.875 -16.597656 L 6.199219 -15.898438 C 6.425781 -15.449219 6.449219 -15.046875 6.25 -14.546875 L 1.574219 -2.949219 C 0.898438 -1.273438 0.226562 -0.625 -0.523438 -0.351562 Z M 3.648438 -6.925781 L 6.773438 -14.648438 L 10 -6.925781 Z M 3.648438 -6.925781 "/></g></g></g><g fill="#000000" fill-opacity="1"><g transform="translate(122.403115, 179.302884)"><g><path d="M 71.65625 0.90625 C 67.65625 0.90625 65.65625 -1.097656 65.65625 -5.109375 C 65.65625 -7.242188 66.117188 -9.507812 67.046875 -11.90625 C 67.984375 -14.3125 68.648438 -16.046875 69.046875 -17.109375 C 69.785156 -18.910156 71.222656 -21.914062 73.359375 -26.125 C 76.691406 -33.195312 79.328125 -38.332031 81.265625 -41.53125 L 52.4375 -11.109375 C 52.238281 -9.835938 51.375 -8.90625 49.84375 -8.3125 C 49.175781 -8.039062 48.007812 -6.90625 46.34375 -4.90625 C 46.269531 -4.832031 46.132812 -4.796875 45.9375 -4.796875 C 45.738281 -4.796875 45.554688 -4.863281 45.390625 -5 C 45.222656 -5.132812 45.171875 -5.234375 45.234375 -5.296875 C 46.972656 -7.503906 47.875 -10.539062 47.9375 -14.40625 L 48.53125 -43.53125 C 48.53125 -46.46875 49.332031 -48.90625 50.9375 -50.84375 C 48.269531 -48.84375 46.269531 -46.472656 44.9375 -43.734375 C 44.40625 -42.671875 42.96875 -39.164062 40.625 -33.21875 C 35.289062 -20.007812 30.15625 -10.769531 25.21875 -5.5 C 23.550781 -3.695312 21.414062 -2.160156 18.8125 -0.890625 C 16.207031 0.367188 13.804688 1 11.609375 1 C 9.410156 1 7.410156 0.398438 5.609375 -0.796875 C 2.265625 -3.066406 0.59375 -6.703125 0.59375 -11.703125 C 0.59375 -12.578125 0.726562 -13.046875 1 -13.109375 C 1.46875 -13.171875 1.703125 -12.90625 1.703125 -12.3125 C 1.703125 -9.238281 2.453125 -6.882812 3.953125 -5.25 C 5.453125 -3.613281 7.4375 -2.796875 9.90625 -2.796875 C 14.175781 -2.796875 18.445312 -5.164062 22.71875 -9.90625 C 26.320312 -13.78125 29.625 -18.351562 32.625 -23.625 C 33.488281 -25.15625 34.117188 -26.269531 34.515625 -26.96875 C 34.921875 -27.664062 35.554688 -28.914062 36.421875 -30.71875 C 37.296875 -32.519531 37.863281 -33.691406 38.125 -34.234375 C 40.195312 -38.703125 41.398438 -41.300781 41.734375 -42.03125 C 44.203125 -47.363281 47.671875 -50.703125 52.140625 -52.046875 L 52.234375 -52.140625 L 46.734375 -52.140625 C 36.128906 -52.140625 29.789062 -50.601562 27.71875 -47.53125 C 27.125 -46.601562 26.828125 -45.703125 26.828125 -44.828125 C 26.828125 -41.898438 27.890625 -39.9375 30.015625 -38.9375 C 30.484375 -38.726562 30.46875 -38.488281 29.96875 -38.21875 C 29.46875 -37.957031 28.929688 -37.976562 28.359375 -38.28125 C 27.796875 -38.582031 26.882812 -39.429688 25.625 -40.828125 C 23.820312 -42.960938 22.921875 -44.832031 22.921875 -46.4375 C 22.921875 -48.039062 23.4375 -49.441406 24.46875 -50.640625 C 25.5 -51.835938 27.617188 -52.703125 30.828125 -53.234375 C 35.429688 -54.109375 40.664062 -54.546875 46.53125 -54.546875 C 46.738281 -54.546875 46.875 -54.546875 46.9375 -54.546875 L 57.75 -54.546875 C 58.28125 -54.609375 58.226562 -54.375 57.59375 -53.84375 C 56.957031 -53.3125 56.570312 -53.046875 56.4375 -53.046875 C 53.238281 -52.378906 51.640625 -49.507812 51.640625 -44.4375 C 51.640625 -39.363281 51.90625 -29.289062 52.4375 -14.21875 L 52.4375 -13.609375 L 87.171875 -50.234375 C 89.835938 -53.035156 92.117188 -55.085938 94.015625 -56.390625 C 95.921875 -57.691406 97.804688 -58.34375 99.671875 -58.34375 C 100.335938 -58.34375 100.671875 -58.289062 100.671875 -58.1875 C 100.671875 -58.09375 100.539062 -57.878906 100.28125 -57.546875 C 99.945312 -57.210938 99.613281 -57.046875 99.28125 -57.046875 C 96.476562 -57.046875 93.640625 -54.707031 90.765625 -50.03125 C 86.828125 -43.5625 82.523438 -35.15625 77.859375 -24.8125 C 73.191406 -14.476562 70.859375 -7.507812 70.859375 -3.90625 C 70.859375 -2.03125 71.488281 -1.09375 72.75 -1.09375 C 73.21875 -1.09375 74.132812 -1.375 75.5 -1.9375 C 76.875 -2.507812 78.210938 -3.394531 79.515625 -4.59375 C 80.816406 -5.800781 81.898438 -6.90625 82.765625 -7.90625 C 83.628906 -8.90625 84.328125 -9.738281 84.859375 -10.40625 C 85.398438 -11.070312 85.921875 -11.738281 86.421875 -12.40625 C 86.921875 -13.070312 87.203125 -13.441406 87.265625 -13.515625 C 87.671875 -14.109375 87.9375 -14.15625 88.0625 -13.65625 C 88.195312 -13.15625 88.144531 -12.753906 87.90625 -12.453125 C 87.675781 -12.160156 87.257812 -11.613281 86.65625 -10.8125 C 86.0625 -10.007812 85.515625 -9.304688 85.015625 -8.703125 C 84.515625 -8.109375 83.847656 -7.328125 83.015625 -6.359375 C 82.179688 -5.390625 81.394531 -4.535156 80.65625 -3.796875 C 77.320312 -0.660156 74.320312 0.90625 71.65625 0.90625 Z M 71.65625 0.90625 "/></g></g></g><g fill="#000000" fill-opacity="1"><g transform="translate(184.691651, 214.558916)"><g><path d="M 52.640625 -38.4375 C 53.773438 -40.300781 54.34375 -42.398438 54.34375 -44.734375 C 54.34375 -47.066406 53.972656 -48.898438 53.234375 -50.234375 C 51.972656 -52.367188 49.503906 -53.4375 45.828125 -53.4375 C 39.023438 -53.4375 32.390625 -50.703125 25.921875 -45.234375 C 21.179688 -41.035156 17.289062 -36.015625 14.25 -30.171875 C 11.21875 -24.335938 9.703125 -19.132812 9.703125 -14.5625 C 9.703125 -9.988281 10.753906 -6.550781 12.859375 -4.25 C 14.960938 -1.945312 17.648438 -0.5625 20.921875 -0.09375 C 22.648438 0.164062 24.347656 0.296875 26.015625 0.296875 C 31.085938 0.296875 35.894531 -0.601562 40.4375 -2.40625 C 47.707031 -5.207031 53.539062 -9.34375 57.9375 -14.8125 C 58.613281 -15.613281 58.953125 -15.613281 58.953125 -14.8125 C 58.953125 -14.34375 58.679688 -13.742188 58.140625 -13.015625 C 53.941406 -7.410156 48.304688 -3.140625 41.234375 -0.203125 C 36.222656 1.867188 30.914062 2.90625 25.3125 2.90625 C 16.238281 2.90625 9.96875 0.503906 6.5 -4.296875 C 4.695312 -6.765625 3.796875 -9.835938 3.796875 -13.515625 C 3.796875 -19.785156 5.53125 -25.90625 9 -31.875 C 12.476562 -37.84375 16.953125 -42.894531 22.421875 -47.03125 C 29.421875 -52.300781 36.992188 -54.9375 45.140625 -54.9375 C 48.804688 -54.9375 51.988281 -54.285156 54.6875 -52.984375 C 57.394531 -51.691406 58.75 -49.976562 58.75 -47.84375 C 58.75 -46.90625 58.128906 -45.414062 56.890625 -43.375 C 55.660156 -41.34375 54.878906 -39.863281 54.546875 -38.9375 C 54.410156 -38.46875 53.910156 -38.195312 53.046875 -38.125 C 52.773438 -38.195312 52.640625 -38.300781 52.640625 -38.4375 Z M 52.640625 -38.4375 "/></g></g></g><g fill="#000000" fill-opacity="1"><g transform="translate(146.678213, 269.20841)"><g><path d="M 2.84375 -6.90625 L 3.046875 -6.90625 L 5.59375 0 L 4.828125 0 L 4.203125 -1.765625 L 1.65625 -1.765625 L 1.03125 0 L 0.296875 0 Z M 3.96875 -2.40625 L 2.9375 -5.3125 L 1.890625 -2.40625 Z M 3.96875 -2.40625 "/></g></g></g><g fill="#000000" fill-opacity="1"><g transform="translate(152.575891, 269.20841)"><g><path d="M 3.8125 0.09375 C 3.351562 0.09375 2.921875 0.00390625 2.515625 -0.171875 C 2.117188 -0.347656 1.769531 -0.585938 1.46875 -0.890625 C 1.164062 -1.203125 0.925781 -1.5625 0.75 -1.96875 C 0.582031 -2.382812 0.5 -2.832031 0.5 -3.3125 C 0.5 -3.800781 0.585938 -4.253906 0.765625 -4.671875 C 0.941406 -5.097656 1.179688 -5.46875 1.484375 -5.78125 C 1.785156 -6.101562 2.140625 -6.351562 2.546875 -6.53125 C 2.953125 -6.707031 3.382812 -6.796875 3.84375 -6.796875 C 4.34375 -6.796875 4.8125 -6.691406 5.25 -6.484375 C 5.6875 -6.273438 6.0625 -5.988281 6.375 -5.625 L 5.84375 -5.1875 C 5.582031 -5.476562 5.28125 -5.703125 4.9375 -5.859375 C 4.59375 -6.023438 4.226562 -6.109375 3.84375 -6.109375 C 3.46875 -6.109375 3.125 -6.035156 2.8125 -5.890625 C 2.5 -5.753906 2.222656 -5.5625 1.984375 -5.3125 C 1.753906 -5.070312 1.570312 -4.78125 1.4375 -4.4375 C 1.3125 -4.101562 1.25 -3.738281 1.25 -3.34375 C 1.25 -2.957031 1.3125 -2.59375 1.4375 -2.25 C 1.570312 -1.914062 1.753906 -1.625 1.984375 -1.375 C 2.222656 -1.132812 2.5 -0.941406 2.8125 -0.796875 C 3.132812 -0.660156 3.484375 -0.59375 3.859375 -0.59375 C 4.273438 -0.59375 4.65625 -0.675781 5 -0.84375 C 5.34375 -1.007812 5.632812 -1.234375 5.875 -1.515625 L 5.875 -2.953125 L 3.84375 -2.953125 L 3.84375 -3.59375 L 6.5625 -3.59375 L 6.5625 -1.375 C 6.238281 -0.90625 5.835938 -0.539062 5.359375 -0.28125 C 4.890625 -0.03125 4.375 0.09375 3.8125 0.09375 Z M 3.8125 0.09375 "/></g></g></g><g fill="#000000" fill-opacity="1"><g transform="translate(159.793039, 269.20841)"><g><path d="M 0.90625 -6.703125 L 4.34375 -6.703125 L 4.34375 -6.046875 L 1.59375 -6.046875 L 1.59375 -3.796875 L 3.703125 -3.796875 L 3.703125 -3.15625 L 1.59375 -3.15625 L 1.59375 -0.65625 L 4.40625 -0.65625 L 4.40625 0 L 0.90625 0 Z M 0.90625 -6.703125 "/></g></g></g><g fill="#000000" fill-opacity="1"><g transform="translate(164.791062, 269.20841)"><g><path d="M 1.578125 -5.203125 L 1.578125 0 L 0.90625 0 L 0.90625 -6.90625 L 1.09375 -6.90625 L 5.625 -1.484375 L 5.625 -6.703125 L 6.296875 -6.703125 L 6.296875 0.203125 L 6.09375 0.203125 Z M 1.578125 -5.203125 "/></g></g></g><g fill="#000000" fill-opacity="1"><g transform="translate(171.988228, 269.20841)"><g><path d="M 2.5 -6.046875 L 0.296875 -6.046875 L 0.296875 -6.703125 L 5.40625 -6.703125 L 5.40625 -6.046875 L 3.203125 -6.046875 L 3.203125 0 L 2.5 0 Z M 2.5 -6.046875 "/></g></g></g><g fill="#000000" fill-opacity="1"><g transform="translate(177.685978, 269.20841)"><g><path d="M 0.90625 -6.703125 L 4.34375 -6.703125 L 4.34375 -6.046875 L 1.59375 -6.046875 L 1.59375 -3.796875 L 3.703125 -3.796875 L 3.703125 -3.15625 L 1.59375 -3.15625 L 1.59375 -0.65625 L 4.40625 -0.65625 L 4.40625 0 L 0.90625 0 Z M 0.90625 -6.703125 "/></g></g></g><g fill="#000000" fill-opacity="1"><g transform="translate(182.684002, 269.20841)"><g/></g></g><g fill="#000000" fill-opacity="1"><g transform="translate(184.883133, 269.20841)"><g><path d="M 0.90625 -6.703125 L 1.59375 -6.703125 L 1.59375 -0.65625 L 4.296875 -0.65625 L 4.296875 0 L 0.90625 0 Z M 0.90625 -6.703125 "/></g></g></g><g fill="#000000" fill-opacity="1"><g transform="translate(189.631263, 269.20841)"><g><path d="M 0.90625 -6.703125 L 1.59375 -6.703125 L 1.59375 0 L 0.90625 0 Z M 0.90625 -6.703125 "/></g></g></g><g fill="#000000" fill-opacity="1"><g transform="translate(192.130275, 269.20841)"><g><path d="M 2.5 -6.046875 L 0.296875 -6.046875 L 0.296875 -6.703125 L 5.40625 -6.703125 L 5.40625 -6.046875 L 3.203125 -6.046875 L 3.203125 0 L 2.5 0 Z M 2.5 -6.046875 "/></g></g></g><g fill="#000000" fill-opacity="1"><g transform="translate(197.828025, 269.20841)"><g><path d="M 0.90625 -6.703125 L 4.34375 -6.703125 L 4.34375 -6.046875 L 1.59375 -6.046875 L 1.59375 -3.796875 L 3.703125 -3.796875 L 3.703125 -3.15625 L 1.59375 -3.15625 L 1.59375 -0.65625 L 4.40625 -0.65625 L 4.40625 0 L 0.90625 0 Z M 0.90625 -6.703125 "/></g></g></g><g fill="#000000" fill-opacity="1"><g transform="translate(202.826048, 269.20841)"><g><path d="M 0.90625 -6.703125 L 2.5 -6.703125 C 2.832031 -6.703125 3.140625 -6.648438 3.421875 -6.546875 C 3.703125 -6.453125 3.941406 -6.316406 4.140625 -6.140625 C 4.347656 -5.960938 4.507812 -5.753906 4.625 -5.515625 C 4.738281 -5.273438 4.796875 -5.015625 4.796875 -4.734375 C 4.796875 -4.492188 4.757812 -4.269531 4.6875 -4.0625 C 4.613281 -3.863281 4.507812 -3.679688 4.375 -3.515625 C 4.25 -3.359375 4.09375 -3.222656 3.90625 -3.109375 C 3.71875 -2.992188 3.515625 -2.90625 3.296875 -2.84375 L 5.203125 0 L 4.359375 0 L 2.5 -2.765625 L 1.59375 -2.765625 L 1.59375 0 L 0.90625 0 Z M 2.5 -3.40625 C 2.976562 -3.40625 3.363281 -3.523438 3.65625 -3.765625 C 3.945312 -4.003906 4.09375 -4.328125 4.09375 -4.734375 C 4.09375 -5.140625 3.945312 -5.457031 3.65625 -5.6875 C 3.363281 -5.925781 2.976562 -6.046875 2.5 -6.046875 L 1.59375 -6.046875 L 1.59375 -3.40625 Z M 2.5 -3.40625 "/></g></g></g><g fill="#000000" fill-opacity="1"><g transform="translate(208.423845, 269.20841)"><g><path d="M 2.84375 -6.90625 L 3.046875 -6.90625 L 5.59375 0 L 4.828125 0 L 4.203125 -1.765625 L 1.65625 -1.765625 L 1.03125 0 L 0.296875 0 Z M 3.96875 -2.40625 L 2.9375 -5.3125 L 1.890625 -2.40625 Z M 2.59375 -7.484375 L 3.734375 -8.953125 L 4.21875 -8.53125 L 2.96875 -7.171875 Z M 2.59375 -7.484375 "/></g></g></g><g fill="#000000" fill-opacity="1"><g transform="translate(214.321523, 269.20841)"><g><path d="M 0.90625 -6.703125 L 2.5 -6.703125 C 2.832031 -6.703125 3.140625 -6.648438 3.421875 -6.546875 C 3.703125 -6.453125 3.941406 -6.316406 4.140625 -6.140625 C 4.347656 -5.960938 4.507812 -5.753906 4.625 -5.515625 C 4.738281 -5.273438 4.796875 -5.015625 4.796875 -4.734375 C 4.796875 -4.492188 4.757812 -4.269531 4.6875 -4.0625 C 4.613281 -3.863281 4.507812 -3.679688 4.375 -3.515625 C 4.25 -3.359375 4.09375 -3.222656 3.90625 -3.109375 C 3.71875 -2.992188 3.515625 -2.90625 3.296875 -2.84375 L 5.203125 0 L 4.359375 0 L 2.5 -2.765625 L 1.59375 -2.765625 L 1.59375 0 L 0.90625 0 Z M 2.5 -3.40625 C 2.976562 -3.40625 3.363281 -3.523438 3.65625 -3.765625 C 3.945312 -4.003906 4.09375 -4.328125 4.09375 -4.734375 C 4.09375 -5.140625 3.945312 -5.457031 3.65625 -5.6875 C 3.363281 -5.925781 2.976562 -6.046875 2.5 -6.046875 L 1.59375 -6.046875 L 1.59375 -3.40625 Z M 2.5 -3.40625 "/></g></g></g><g fill="#000000" fill-opacity="1"><g transform="translate(219.91932, 269.20841)"><g><path d="M 0.90625 -6.703125 L 1.59375 -6.703125 L 1.59375 0 L 0.90625 0 Z M 0.90625 -6.703125 "/></g></g></g><g fill="#000000" fill-opacity="1"><g transform="translate(222.418332, 269.20841)"><g><path d="M 2.84375 -6.90625 L 3.046875 -6.90625 L 5.59375 0 L 4.828125 0 L 4.203125 -1.765625 L 1.65625 -1.765625 L 1.03125 0 L 0.296875 0 Z M 3.96875 -2.40625 L 2.9375 -5.3125 L 1.890625 -2.40625 Z M 3.96875 -2.40625 "/></g></g></g></svg>